ffmpeg started on 2025-06-03 at 19:59:52
Report written to "D:\Convert\FFMetrics\reports\psnr_report-6.txt"
Log level: 32
Command line:
ffmpeg -hide_banner -nostdin -i "G:\\\xc0\xed\xe8\xec\xe5\\\xce\xed\xe3\xee\xe8\xed\xe3\xe8\\!_36_\xce\xf1\xe5\xed\xfc_2024\\DreamCast\\\xc1\xe0\xf8\xed\xff \xc1\xee\xe3\xe0\\\xd2\xc2-2\\[DC] Kami no Tou - Ouji no Kikan - 18_Telegram_HEVC.mkv" -i "G:\\\xc0\xed\xe8\xec\xe5\\\xce\xed\xe3\xee\xe8\xed\xe3\xe8\\!_36_\xce\xf1\xe5\xed\xfc_2024\\DreamCast\\\xc1\xe0\xf8\xed\xff \xc1\xee\xe3\xe0\\\xd2\xc2-2\\[DC] Kami no Tou - Ouji no Kikan - 18_Telegram.mp4" -lavfi "[0:v]settb=AVTB,setpts=PTS-STARTPTS,format=pix_fmts=yuv420p10,fps=24000/1001,scale=1920:1080:flags=bicubic[main];[1:v]settb=AVTB,setpts=PTS-STARTPTS,format=pix_fmts=yuv420p,fps=24000/1001,scale=1920:1080:flags=bicubic[ref];[main][ref]psnr=eof_action=endall:stats_file='D\\:/Convert/FFMetrics/logs/psnr_logfile-6.txt'" -f null -
Input #0, matroska,webm, from 'G:\Аниме\Онгоинги\!_36_Осень_2024\DreamCast\Башня Бога\ТВ-2\[DC] Kami no Tou - Ouji no Kikan - 18_Telegram_HEVC.mkv':
  Metadata:
    COMPATIBLE_BRANDS: isomiso2avc1mp41
    MAJOR_BRAND     : isom
    MINOR_VERSION   : 512
    ENCODER         : Lavf61.7.100
  Duration: 00:23:47.93, start: -0.021000, bitrate: 1191 kb/s
  Stream #0:0: Video: hevc (Main 10), yuv420p10le(tv, bt709, progressive), 1920x1080 [SAR 1:1 DAR 16:9], 23.98 fps, 23.98 tbr, 1k tbn (default)
      Metadata:
        HANDLER_NAME    : VideoHandler
        VENDOR_ID       : [0][0][0][0]
        ENCODER         : Lavc61.19.100 libx265
        BPS             : 993797
        DURATION        : 00:23:47.592708333
        NUMBER_OF_FRAMES: 34228
        NUMBER_OF_BYTES : 177342137
        _STATISTICS_WRITING_APP: mkvpropedit v66.0.0 ('Josie') 64-bit
        _STATISTICS_WRITING_DATE_UTC: 2025-05-29 19:08:28
        _STATISTICS_TAGS: BPS DURATION NUMBER_OF_FRAMES NUMBER_OF_BYTES
  Stream #0:1: Audio: aac (LC), 48000 Hz, stereo, fltp (default)
      Metadata:
        HANDLER_NAME    : SoundHandler
        VENDOR_ID       : [0][0][0][0]
        ENCODER         : Lavc61.19.100 aac
        BPS             : 193618
        DURATION        : 00:23:47.925000000
        NUMBER_OF_FRAMES: 66935
        NUMBER_OF_BYTES : 34559010
        _STATISTICS_WRITING_APP: mkvpropedit v66.0.0 ('Josie') 64-bit
        _STATISTICS_WRITING_DATE_UTC: 2025-05-29 19:08:28
        _STATISTICS_TAGS: BPS DURATION NUMBER_OF_FRAMES NUMBER_OF_BYTES
Input #1, mov,mp4,m4a,3gp,3g2,mj2, from 'G:\Аниме\Онгоинги\!_36_Осень_2024\DreamCast\Башня Бога\ТВ-2\[DC] Kami no Tou - Ouji no Kikan - 18_Telegram.mp4':
  Metadata:
    major_brand     : isom
    minor_version   : 512
    compatible_brands: isomiso2avc1mp41
    encoder         : Lavf61.1.100
  Duration: 00:23:47.86, start: 0.000000, bitrate: 3413 kb/s
  Stream #1:0[0x1](und): Video: h264 (High) (avc1 / 0x31637661), yuv420p(tv, bt709, progressive), 1920x1080 [SAR 1:1 DAR 16:9], 3266 kb/s, 23.98 fps, 23.98 tbr, 24k tbn (default)
      Metadata:
        handler_name    : VideoHandler
        vendor_id       : [0][0][0][0]
        encoder         : Lavc61.3.100 h264_qsv
  Stream #1:1[0x2](und): Audio: aac (HE-AACv2) (mp4a / 0x6134706D), 48000 Hz, stereo, fltp, 144 kb/s (default)
      Metadata:
        handler_name    : SoundHandler
        vendor_id       : [0][0][0][0]
Stream mapping:
  Stream #0:0 (hevc) -> settb:default
  Stream #1:0 (h264) -> settb:default
  psnr:default -> Stream #0:0 (wrapped_avframe)
  Stream #0:1 -> #0:1 (aac (native) -> pcm_s16le (native))
Output #0, null, to 'pipe:':
  Metadata:
    COMPATIBLE_BRANDS: isomiso2avc1mp41
    MAJOR_BRAND     : isom
    MINOR_VERSION   : 512
    encoder         : Lavf61.7.100
  Stream #0:0: Video: wrapped_avframe, yuv420p10le(tv, bt709, progressive), 1920x1080 [SAR 1:1 DAR 16:9], q=2-31, 200 kb/s, 23.98 fps, 23.98 tbn
      Metadata:
        encoder         : Lavc61.19.100 wrapped_avframe
  Stream #0:1: Audio: pcm_s16le, 48000 Hz, stereo, s16, 1536 kb/s (default)
      Metadata:
        HANDLER_NAME    : SoundHandler
        VENDOR_ID       : [0][0][0][0]
        _STATISTICS_TAGS: BPS DURATION NUMBER_OF_FRAMES NUMBER_OF_BYTES
        BPS             : 193618
        DURATION        : 00:23:47.925000000
        NUMBER_OF_FRAMES: 66935
        NUMBER_OF_BYTES : 34559010
        _STATISTICS_WRITING_APP: mkvpropedit v66.0.0 ('Josie') 64-bit
        _STATISTICS_WRITING_DATE_UTC: 2025-05-29 19:08:28
        encoder         : Lavc61.19.100 pcm_s16le
frame=  182 fps=0.0 q=-0.0 size=N/A time=00:00:07.59 bitrate=N/A speed=14.5x    frame=  443 fps=428 q=-0.0 size=N/A time=00:00:18.47 bitrate=N/A speed=17.9x    frame=  702 fps=455 q=-0.0 size=N/A time=00:00:29.27 bitrate=N/A speed=  19x    frame=  980 fps=474 q=-0.0 size=N/A time=00:00:40.87 bitrate=N/A speed=19.8x    frame= 1262 fps=490 q=-0.0 size=N/A time=00:00:52.63 bitrate=N/A speed=20.4x    frame= 1555 fps=502 q=-0.0 size=N/A time=00:01:04.85 bitrate=N/A speed=20.9x    frame= 1798 fps=498 q=-0.0 size=N/A time=00:01:14.99 bitrate=N/A speed=20.8x    frame= 2068 fps=500 q=-0.0 size=N/A time=00:01:26.25 bitrate=N/A speed=20.9x    frame= 2340 fps=504 q=-0.0 size=N/A time=00:01:37.59 bitrate=N/A speed=  21x    frame= 2618 fps=508 q=-0.0 size=N/A time=00:01:49.19 bitrate=N/A speed=21.2x    frame= 2864 fps=504 q=-0.0 size=N/A time=00:01:59.45 bitrate=N/A speed=  21x    frame= 3118 fps=503 q=-0.0 size=N/A time=00:02:10.04 bitrate=N/A speed=  21x    frame= 3368 fps=502 q=-0.0 size=N/A time=00:02:20.47 bitrate=N/A speed=20.9x    frame= 3589 fps=497 q=-0.0 size=N/A time=00:02:29.69 bitrate=N/A speed=20.7x    frame= 3823 fps=494 q=-0.0 size=N/A time=00:02:39.45 bitrate=N/A speed=20.6x    frame= 4013 fps=487 q=-0.0 size=N/A time=00:02:47.37 bitrate=N/A speed=20.3x    frame= 4236 fps=483 q=-0.0 size=N/A time=00:02:56.67 bitrate=N/A speed=20.1x    frame= 4452 fps=480 q=-0.0 size=N/A time=00:03:05.68 bitrate=N/A speed=  20x    frame= 4688 fps=478 q=-0.0 size=N/A time=00:03:15.52 bitrate=N/A speed=19.9x    frame= 4913 fps=476 q=-0.0 size=N/A time=00:03:24.91 bitrate=N/A speed=19.9x    frame= 5156 fps=476 q=-0.0 size=N/A time=00:03:35.04 bitrate=N/A speed=19.9x    frame= 5356 fps=472 q=-0.0 size=N/A time=00:03:43.38 bitrate=N/A speed=19.7x    frame= 5553 fps=468 q=-0.0 size=N/A time=00:03:51.60 bitrate=N/A speed=19.5x    frame= 5768 fps=466 q=-0.0 size=N/A time=00:04:00.57 bitrate=N/A speed=19.4x    frame= 6011 fps=466 q=-0.0 size=N/A time=00:04:10.70 bitrate=N/A speed=19.4x    frame= 6269 fps=467 q=-0.0 size=N/A time=00:04:21.46 bitrate=N/A speed=19.5x    frame= 6539 fps=470 q=-0.0 size=N/A time=00:04:32.73 bitrate=N/A speed=19.6x    frame= 6745 fps=467 q=-0.0 size=N/A time=00:04:41.32 bitrate=N/A speed=19.5x    frame= 6971 fps=466 q=-0.0 size=N/A time=00:04:50.74 bitrate=N/A speed=19.4x    frame= 7227 fps=467 q=-0.0 size=N/A time=00:05:01.42 bitrate=N/A speed=19.5x    frame= 7516 fps=470 q=-0.0 size=N/A time=00:05:13.47 bitrate=N/A speed=19.6x    frame= 7739 fps=469 q=-0.0 size=N/A time=00:05:22.78 bitrate=N/A speed=19.6x    frame= 7980 fps=469 q=-0.0 size=N/A time=00:05:32.83 bitrate=N/A speed=19.6x    frame= 8224 fps=469 q=-0.0 size=N/A time=00:05:43.00 bitrate=N/A speed=19.6x    frame= 8419 fps=466 q=-0.0 size=N/A time=00:05:51.14 bitrate=N/A speed=19.4x    frame= 8629 fps=465 q=-0.0 size=N/A time=00:05:59.90 bitrate=N/A speed=19.4x    frame= 8840 fps=463 q=-0.0 size=N/A time=00:06:08.70 bitrate=N/A speed=19.3x    frame= 9055 fps=462 q=-0.0 size=N/A time=00:06:17.66 bitrate=N/A speed=19.2x    frame= 9215 fps=458 q=-0.0 size=N/A time=00:06:24.34 bitrate=N/A speed=19.1x    frame= 9398 fps=455 q=-0.0 size=N/A time=00:06:31.97 bitrate=N/A speed=  19x    frame= 9637 fps=455 q=-0.0 size=N/A time=00:06:41.94 bitrate=N/A speed=  19x    frame= 9909 fps=457 q=-0.0 size=N/A time=00:06:53.28 bitrate=N/A speed=19.1x    frame=10148 fps=457 q=-0.0 size=N/A time=00:07:03.25 bitrate=N/A speed=19.1x    frame=10386 fps=458 q=-0.0 size=N/A time=00:07:13.18 bitrate=N/A speed=19.1x    frame=10621 fps=457 q=-0.0 size=N/A time=00:07:22.98 bitrate=N/A speed=19.1x    frame=10853 fps=457 q=-0.0 size=N/A time=00:07:32.66 bitrate=N/A speed=19.1x    frame=11049 fps=456 q=-0.0 size=N/A time=00:07:40.83 bitrate=N/A speed=  19x    frame=11271 fps=455 q=-0.0 size=N/A time=00:07:50.09 bitrate=N/A speed=  19x    frame=11465 fps=454 q=-0.0 size=N/A time=00:07:58.18 bitrate=N/A speed=18.9x    frame=11698 fps=453 q=-0.0 size=N/A time=00:08:07.90 bitrate=N/A speed=18.9x    frame=11936 fps=454 q=-0.0 size=N/A time=00:08:17.83 bitrate=N/A speed=18.9x    frame=12188 fps=454 q=-0.0 size=N/A time=00:08:28.34 bitrate=N/A speed=18.9x    frame=12439 fps=455 q=-0.0 size=N/A time=00:08:38.80 bitrate=N/A speed=  19x    frame=12697 fps=456 q=-0.0 size=N/A time=00:08:49.57 bitrate=N/A speed=  19x    frame=12937 fps=456 q=-0.0 size=N/A time=00:08:59.58 bitrate=N/A speed=  19x    frame=13183 fps=456 q=-0.0 size=N/A time=00:09:09.84 bitrate=N/A speed=  19x    frame=13425 fps=457 q=-0.0 size=N/A time=00:09:19.93 bitrate=N/A speed=  19x    frame=13654 fps=456 q=-0.0 size=N/A time=00:09:29.48 bitrate=N/A speed=  19x    frame=13938 fps=458 q=-0.0 size=N/A time=00:09:41.33 bitrate=N/A speed=19.1x    frame=14193 fps=459 q=-0.0 size=N/A time=00:09:51.96 bitrate=N/A speed=19.1x    frame=14472 fps=460 q=-0.0 size=N/A time=00:10:03.60 bitrate=N/A speed=19.2x    frame=14736 fps=461 q=-0.0 size=N/A time=00:10:14.61 bitrate=N/A speed=19.2x    frame=15011 fps=462 q=-0.0 size=N/A time=00:10:26.08 bitrate=N/A speed=19.3x    frame=15279 fps=463 q=-0.0 size=N/A time=00:10:37.26 bitrate=N/A speed=19.3x    frame=15550 fps=464 q=-0.0 size=N/A time=00:10:48.56 bitrate=N/A speed=19.3x    frame=15823 fps=465 q=-0.0 size=N/A time=00:10:59.95 bitrate=N/A speed=19.4x    frame=16091 fps=466 q=-0.0 size=N/A time=00:11:11.12 bitrate=N/A speed=19.4x    frame=16342 fps=466 q=-0.0 size=N/A time=00:11:21.59 bitrate=N/A speed=19.4x    frame=16611 fps=467 q=-0.0 size=N/A time=00:11:32.81 bitrate=N/A speed=19.5x    frame=16885 fps=467 q=-0.0 size=N/A time=00:11:44.24 bitrate=N/A speed=19.5x    frame=17148 fps=468 q=-0.0 size=N/A time=00:11:55.21 bitrate=N/A speed=19.5x    frame=17402 fps=468 q=-0.0 size=N/A time=00:12:05.80 bitrate=N/A speed=19.5x    frame=17643 fps=468 q=-0.0 size=N/A time=00:12:15.86 bitrate=N/A speed=19.5x    frame=17883 fps=468 q=-0.0 size=N/A time=00:12:25.87 bitrate=N/A speed=19.5x    frame=18139 fps=469 q=-0.0 size=N/A time=00:12:36.54 bitrate=N/A speed=19.5x    frame=18373 fps=468 q=-0.0 size=N/A time=00:12:46.30 bitrate=N/A speed=19.5x    frame=18642 fps=469 q=-0.0 size=N/A time=00:12:57.52 bitrate=N/A speed=19.6x    frame=18908 fps=470 q=-0.0 size=N/A time=00:13:08.62 bitrate=N/A speed=19.6x    frame=19150 fps=470 q=-0.0 size=N/A time=00:13:18.71 bitrate=N/A speed=19.6x    frame=19417 fps=470 q=-0.0 size=N/A time=00:13:29.85 bitrate=N/A speed=19.6x    frame=19687 fps=471 q=-0.0 size=N/A time=00:13:41.11 bitrate=N/A speed=19.6x    frame=19928 fps=471 q=-0.0 size=N/A time=00:13:51.16 bitrate=N/A speed=19.6x    frame=20161 fps=471 q=-0.0 size=N/A time=00:14:00.92 bitrate=N/A speed=19.6x    frame=20431 fps=471 q=-0.0 size=N/A time=00:14:12.14 bitrate=N/A speed=19.7x    frame=20700 fps=472 q=-0.0 size=N/A time=00:14:23.36 bitrate=N/A speed=19.7x    frame=20945 fps=472 q=-0.0 size=N/A time=00:14:33.58 bitrate=N/A speed=19.7x    frame=21209 fps=472 q=-0.0 size=N/A time=00:14:44.59 bitrate=N/A speed=19.7x    frame=21455 fps=472 q=-0.0 size=N/A time=00:14:54.85 bitrate=N/A speed=19.7x    frame=21716 fps=473 q=-0.0 size=N/A time=00:15:05.73 bitrate=N/A speed=19.7x    frame=21934 fps=472 q=-0.0 size=N/A time=00:15:14.83 bitrate=N/A speed=19.7x    frame=22207 fps=473 q=-0.0 size=N/A time=00:15:26.21 bitrate=N/A speed=19.7x    frame=22478 fps=473 q=-0.0 size=N/A time=00:15:37.51 bitrate=N/A speed=19.7x    frame=22753 fps=474 q=-0.0 size=N/A time=00:15:48.98 bitrate=N/A speed=19.8x    frame=22982 fps=474 q=-0.0 size=N/A time=00:15:58.54 bitrate=N/A speed=19.8x    frame=23275 fps=475 q=-0.0 size=N/A time=00:16:10.76 bitrate=N/A speed=19.8x    frame=23516 fps=475 q=-0.0 size=N/A time=00:16:20.81 bitrate=N/A speed=19.8x    frame=23798 fps=475 q=-0.0 size=N/A time=00:16:32.57 bitrate=N/A speed=19.8x    frame=24086 fps=476 q=-0.0 size=N/A time=00:16:44.58 bitrate=N/A speed=19.9x    frame=24374 fps=477 q=-0.0 size=N/A time=00:16:56.59 bitrate=N/A speed=19.9x    frame=24661 fps=478 q=-0.0 size=N/A time=00:17:08.56 bitrate=N/A speed=19.9x    frame=24930 fps=478 q=-0.0 size=N/A time=00:17:19.78 bitrate=N/A speed=19.9x    frame=25197 fps=479 q=-0.0 size=N/A time=00:17:30.92 bitrate=N/A speed=  20x    frame=25425 fps=478 q=-0.0 size=N/A time=00:17:40.43 bitrate=N/A speed=19.9x    frame=25719 fps=479 q=-0.0 size=N/A time=00:17:52.69 bitrate=N/A speed=  20x    frame=25986 fps=480 q=-0.0 size=N/A time=00:18:03.83 bitrate=N/A speed=  20x    frame=26243 fps=480 q=-0.0 size=N/A time=00:18:14.55 bitrate=N/A speed=  20x    frame=26523 fps=480 q=-0.0 size=N/A time=00:18:26.23 bitrate=N/A speed=  20x    frame=26760 fps=480 q=-0.0 size=N/A time=00:18:36.11 bitrate=N/A speed=  20x    frame=26994 fps=480 q=-0.0 size=N/A time=00:18:45.87 bitrate=N/A speed=  20x    frame=27280 fps=480 q=-0.0 size=N/A time=00:18:57.80 bitrate=N/A speed=  20x    frame=27558 fps=481 q=-0.0 size=N/A time=00:19:09.39 bitrate=N/A speed=20.1x    frame=27823 fps=481 q=-0.0 size=N/A time=00:19:20.45 bitrate=N/A speed=20.1x    frame=28096 fps=482 q=-0.0 size=N/A time=00:19:31.83 bitrate=N/A speed=20.1x    frame=28384 fps=482 q=-0.0 size=N/A time=00:19:43.84 bitrate=N/A speed=20.1x    frame=28632 fps=482 q=-0.0 size=N/A time=00:19:54.19 bitrate=N/A speed=20.1x    frame=28917 fps=483 q=-0.0 size=N/A time=00:20:06.07 bitrate=N/A speed=20.1x    frame=29174 fps=483 q=-0.0 size=N/A time=00:20:16.79 bitrate=N/A speed=20.2x    frame=29429 fps=483 q=-0.0 size=N/A time=00:20:27.43 bitrate=N/A speed=20.2x    frame=29697 fps=484 q=-0.0 size=N/A time=00:20:38.61 bitrate=N/A speed=20.2x    frame=29962 fps=484 q=-0.0 size=N/A time=00:20:49.66 bitrate=N/A speed=20.2x    frame=30161 fps=483 q=-0.0 size=N/A time=00:20:57.96 bitrate=N/A speed=20.1x    frame=30457 fps=484 q=-0.0 size=N/A time=00:21:10.31 bitrate=N/A speed=20.2x    frame=30710 fps=484 q=-0.0 size=N/A time=00:21:20.86 bitrate=N/A speed=20.2x    frame=30989 fps=484 q=-0.0 size=N/A time=00:21:32.49 bitrate=N/A speed=20.2x    frame=31229 fps=484 q=-0.0 size=N/A time=00:21:42.50 bitrate=N/A speed=20.2x    frame=31489 fps=484 q=-0.0 size=N/A time=00:21:53.35 bitrate=N/A speed=20.2x    frame=31765 fps=485 q=-0.0 size=N/A time=00:22:04.86 bitrate=N/A speed=20.2x    frame=32025 fps=485 q=-0.0 size=N/A time=00:22:15.70 bitrate=N/A speed=20.2x    frame=32213 fps=484 q=-0.0 size=N/A time=00:22:23.55 bitrate=N/A speed=20.2x    frame=32367 fps=482 q=-0.0 size=N/A time=00:22:29.97 bitrate=N/A speed=20.1x    frame=32510 fps=481 q=-0.0 size=N/A time=00:22:35.93 bitrate=N/A speed=20.1x    frame=32664 fps=480 q=-0.0 size=N/A time=00:22:42.36 bitrate=N/A speed=  20x    frame=32801 fps=478 q=-0.0 size=N/A time=00:22:48.07 bitrate=N/A speed=19.9x    frame=32957 fps=477 q=-0.0 size=N/A time=00:22:54.58 bitrate=N/A speed=19.9x    frame=33128 fps=476 q=-0.0 size=N/A time=00:23:01.71 bitrate=N/A speed=19.8x    frame=33273 fps=474 q=-0.0 size=N/A time=00:23:07.76 bitrate=N/A speed=19.8x    frame=33440 fps=473 q=-0.0 size=N/A time=00:23:14.72 bitrate=N/A speed=19.7x    frame=33613 fps=472 q=-0.0 size=N/A time=00:23:21.94 bitrate=N/A speed=19.7x    frame=33752 fps=471 q=-0.0 size=N/A time=00:23:27.73 bitrate=N/A speed=19.6x    frame=33909 fps=469 q=-0.0 size=N/A time=00:23:34.28 bitrate=N/A speed=19.6x    frame=34124 fps=469 q=-0.0 size=N/A time=00:23:43.25 bitrate=N/A speed=19.6x    [Parsed_psnr_10 @ 0000025d42f098c0] PSNR y:49.336887 u:51.647212 v:51.377921 average:49.947964 min:38.454421 max:inf
[out#0/null @ 0000025d40ac5880] video:14707KiB audio:267740KiB subtitle:0KiB other streams:0KiB global headers:0KiB muxing overhead: unknown
frame=34228 fps=469 q=-0.0 Lsize=N/A time=00:23:47.59 bitrate=N/A speed=19.5x    
